


                                                             ÛÛÛÛÛ  
   ÛÛÛÛÛÛÛÛ ÛÛÛ        ÛÛÛ                                  ÛÛÛÛÛÛÛÛ
  ÛÛ   ÛÛÛ ÛÛ        ÛÛÛÛÛÛÛ ÛÛ                           ÛÛÛÛ   ÛÛÛ
       ÛÛ ÛÛÛ       ÛÛ   ÛÛÛÛÛÛ                           ÛÛÛ   ÛÛÛÛ
      ÛÛÛ ÛÛÛ      ÛÛ      ÛÛÛ                           ÛÛÛ    ÛÛÛ 
      ÛÛÛ ÛÛÛ     ÛÛÛ      ÛÛ              ÛÛÛ     ÛÛÛ   ÛÛÛ   ÛÛÛ  
      ÛÛÛ ÛÛÛ     ÛÛÛÛ     ÛÛ             ÛÛÛÛÛ   ÛÛÛÛÛ  ÛÛÛ  ÛÛ    
    ÛÛÛÛÛ ÛÛÛ    ÛÛÛÛÛÛÛÛÛÛÛÛÛÛÛÛ         ÛÛÛÛ    ÛÛÛÛ    ÛÛ ÛÛ     
   ÛÛÛÛÛÛ ÛÛÛ   ÛÛ ÛÛÛÛÛÛÛÛÛÛÛÛÛÛÛÛ      ÛÛÛÛ    ÛÛÛÛ      ÛÛÛ      
  ÛÛ  ÛÛÛ ÛÛÛÛ  ÛÛ       ÛÛ    ÛÛÛÛ     ÛÛÛÛ    ÛÛÛÛ       ÛÛÛÛ     
       ÛÛÛÛÛÛÛ  ÛÛÛ     ÛÛ      ÛÛÛÛ   ÛÛÛÛÛ   ÛÛÛÛÛ     ÛÛÛ ÛÛÛ    
       ÛÛÛ ÛÛÛ   ÛÛÛÛÛÛÛÛÛÛÛÛÛÛ  ÛÛÛ  ÛÛÛÛÛ   ÛÛÛÛÛ     ÛÛÛ   ÛÛÛ   
       ÛÛÛ ÛÛÛ    ÛÛÛÛÛÛÛÛÛÛÛÛÛÛ ÛÛÛ ÛÛ ÛÛÛ  ÛÛ ÛÛÛ    ÛÛÛ    ÛÛÛ   
       ÛÛÛ ÛÛÛ         ÛÛ   ÛÛÛÛÛÛÛÛ    ÛÛÛ     ÛÛÛ   ÛÛÛ     ÛÛÛ   
      ÛÛÛÛ ÛÛÛ   ÛÛÛÛÛÛÛ    ÛÛÛÛÛÛÛÛ    ÛÛ      ÛÛ   ÛÛÛÛ    ÛÛÛÛ   
   ÛÛÛÛÛÛ  ÛÛÛ  ÛÛÛÛÛÛÛÛÛ ÛÛÛ  ÛÛÛ     ÛÛÛ     ÛÛÛ   ÛÛÛ    ÛÛÛÛ    
  ÛÛÛÛÛÛ   ÛÛ   ÛÛ   ÛÛÛÛÛÛÛ  ÛÛÛ      ÛÛÛ     ÛÛÛ   ÛÛÛ   ÛÛÛÛ     
 ÛÛ  ÛÛÛÛ ÛÛÛ   ÛÛ    ÛÛÛÛÛÛÛÛÛ        ÛÛÛ     ÛÛÛ     ÛÛÛÛÛÛÛ      
 ÛÛ    ÛÛÛÛ      ÛÛÛÛÛÛ   ÛÛÛÛ         ÛÛÛ     ÛÛÛ     ÛÛÛÛÛ        
 ---------------------------------------------------------------


Proudly Presenting,

Ice Age 2 - The Meltdown (Hindi) Special Edition!



***** Feel Free Contact Me On Suprbay 
(If you have problems/difficulties/or want to give e suggestions..): 
http://suprbay.org/member.php?u=73830



<<<<-------------------*** Ice-Age 2 - The Meltdown ***-------------->>>>>>>>>>>>>



For More Information of the movie..
Go To.. 
http://en.wikipedia.org/wiki/Ice_Age:_The_Meltdown



<<<<-------------------*** Movie Clip Specifications ***-------------->>>>>>>>>>>>



Video

Format                           : MPEG-4 Visual
Format profile                   : Streaming Video@L1
Format settings, BVOP            : Yes
Format settings, QPel            : No
Format settings, GMC             : No warppoints
Format settings, Matrix          : Default (H.263)
Codec ID                         : XVID
Codec ID/Hint                    : XviD
Duration                         : 55mn 45s
Bit rate                         : 586 Kbps
Width                            : 352 pixels
Height                           : 288 pixels
Display aspect ratio             : 4/3
Frame rate                       : 25.000 fps
Resolution                       : 24 bits
Colorimetry                      : 4:2:0
Scan type                        : Progressive
Bits/(Pixel*Frame)               : 0.231
Stream size                      : 233 MiB (79%)
Writing library                  : XviD 1.2.0.dev47 (UTC 2006-11-01)


Audio

Format                           : MPEG Audio
Format version                   : Version 1
Format profile                   : Layer 3
Codec ID                         : 55
Codec ID/Hint                    : MP3
Duration                         : 55mn 45s
Bit rate mode                    : Variable
Bit rate                         : 140 Kbps
Channel(s)                       : 2 channels
Sampling rate                    : 44.1 KHz
Resolution                       : 16 bits
Stream size                      : 56.0 MiB (19%)
Alignment                        : Aligned on interleaves
Interleave, duration             : 26 ms (0.65 video frame)
Interleave, preload duration     : 178 ms
Writing library                  : LAME3.97



<<<<<<<-------------------*** "Must Be Done...!!!" ***-------------->>>>>>>>>>>>



Please Come & Join our TPB's Forum Site.. & Help us make TPB better & better... 
http://suprbay.org/

If you have any queries, problems related with TPB, any other help... You can directly PM Me!
My Account link is specified here! 
http://suprbay.org/member.php?u=73830

Also,
One More thing..

For Reporting Bad Torrents...
(If you find any torrent with virus, Trojans, malware, spam, fake.. etc Let us know!) 
http://suprbay.org/forumdisplay.php?s=f3a6199e4daba2e7d55524d79e5f17b0&f=34

We'll Definitely Take Care of That things!



<<<<<<<<<-------------------*** Other Instructions ***-------------->>>>>>>>>>



Movie is in HINDI Language.. So, It is not in any English language.



Contact Me, If you have problems!



                  /--------------------------------------
                  |                                      |
                  | "IF A MAN HASN'T SOMETHING,          |
                  |                                      |
                  |         HE SHOULD "DIE" FOR...       |
                  |                                      |
                  |      THEN.. HE HAS NOTHING,          |
                  |                                      |
                  |         HE SHOULD "LIVE" FOR...!!"   |
                  |                                      |
                  --------------------------------------/


	      "Any Difficulty or Problem, Contact Me on SuprBay!"

				Thank You!